<svg width="202" height="212" viewBox="0 0 202 212" fill="none" xmlns="http://www.w3.org/2000/svg">
<path d="M43.7673 0.108047C37.8068 0.320923 35.7997 0.685852 30.3257 2.66257C23.7265 5.06503 17.3098 9.29216 12.3832 14.462C6.72679 20.453 2.92542 27.8124 1.00953 36.51C0.401308 39.1557 0.340486 40.7371 0.15802 51.9283C0.0667871 58.7708 -0.0244458 87.6612 0.00596518 116.095C0.00596518 163.141 0.0667871 168.129 0.522952 171.352C1.61775 178.894 3.29035 183.882 6.72679 189.842C11.258 197.718 17.3402 203.436 25.5208 207.45C30.8123 210.065 34.7353 211.251 39.8139 211.768C41.7602 211.951 64.2035 212.042 102.613 211.981C169.486 211.89 163.526 212.072 171.037 209.67C184.874 205.26 195.336 194.343 199.745 179.746C201.935 172.508 201.783 177.191 201.813 105.148V40.3722L201.174 37.1182C199.259 27.5083 195.336 20.088 188.676 13.4585C183.414 8.16695 178.579 5.18668 171.311 2.69298C164.803 0.472977 163.495 0.290512 152.334 0.19928C133.206 -0.0135956 49.2109 -0.0744171 43.7673 0.108047ZM112.831 19.5102C137.007 23.5853 158.265 37.5135 171.95 58.193C181.438 72.5166 186.881 92.4357 186.121 110.013C185.422 126.04 180.039 143.07 171.798 155.478C164.468 166.426 155.497 175.397 145.34 181.844C130.621 191.15 111.249 196.107 94.7361 194.738C82.815 193.735 73.6613 191.18 63.1999 185.889C43.0071 175.701 27.8016 158.792 20.1076 137.991C14.5728 122.999 13.1131 107.915 15.6676 91.9188C16.9449 83.8294 19.8643 74.6757 23.5441 67.1338C33.823 46.1502 52.921 29.6979 75.5468 22.3689C78.7704 21.3349 83.2712 20.3009 87.7112 19.5711C93.1547 18.6891 93.1852 18.6891 101.548 18.7804C107.448 18.8716 109.972 19.0237 112.831 19.5102Z" fill="#43766C"/>
<path d="M94.0975 29.9108C85.8257 30.884 76.3071 33.8034 67.4879 38.0914C48.2073 47.4884 33.2756 66.4648 27.6495 88.7256C26.1898 94.4125 25.6424 98.6396 25.4599 104.874C24.8821 124.094 30.721 141.337 42.8246 156.39C45.2879 159.462 51.4917 165.787 54.1071 167.916C64.5684 176.461 77.4627 181.935 91.8167 183.912C96.5 184.581 108.573 184.399 112.8 183.638C127.793 180.901 139.988 174.728 150.631 164.449C166.749 148.909 175.082 128.99 175.051 106.06C175.051 99.8256 174.717 96.7237 173.44 90.824C169.912 74.5237 160.089 57.9497 147.925 47.7621C132.902 35.1719 111.158 27.9645 94.0975 29.9108ZM107.174 36.7229C113.469 37.7264 117.848 39.4903 121.984 42.6226C127.337 46.6673 130.682 52.3541 131.351 58.4667C131.655 61.4774 131.625 61.447 134.453 62.7547C139.106 64.8834 142.481 68.9889 143.819 74.1284C144.732 77.7169 144.276 82.8563 142.755 85.867C141.873 87.5396 140.14 89.4251 138.771 90.1245C137.311 90.8544 134.301 90.9152 132.841 90.2158C131.898 89.7596 129.07 86.9618 129.07 86.4752C129.07 86.3536 129.922 85.8974 130.986 85.4412C136.49 83.0388 139.349 77.4432 137.768 72.0908C137.19 70.0837 135.244 67.7421 133.48 66.9514C131.108 65.8566 128.34 66.4648 127.215 68.3199C126.516 69.4755 126.485 70.3574 127.093 71.5434C127.641 72.6078 128.401 73.064 129.648 73.064C130.712 73.064 131.503 73.9763 131.503 75.2536C131.503 76.3788 129.678 78.3555 127.793 79.3286C123.231 81.6399 115.689 81.4878 111.341 78.9941C109.273 77.8385 107.904 76.7741 108.147 76.5612C108.239 76.47 109.121 76.1963 110.094 75.9226C111.067 75.6793 112.922 74.9494 114.169 74.3412C117.058 72.9119 120.981 69.1714 122.167 66.6777C125.36 60.0177 123.931 53.0231 118.578 48.9785C116.541 47.4275 114.503 46.7585 111.857 46.7889C109.151 46.7889 107.235 47.4884 105.836 49.0393C104.772 50.2253 104.528 50.8031 104.376 52.5062C104.194 54.3612 101.092 55.3952 98.9632 54.3004C97.9901 53.8138 97.8684 53.601 97.7164 52.1412C96.9257 45.7853 86.6468 44.6601 80.9904 50.3166C76.6112 54.6958 75.8509 61.6903 79.1961 67.2859C81.5986 71.361 85.2479 74.0675 90.6915 75.801L93.2156 76.6221L92.1208 77.5648C87.9545 81.2445 78.9224 82.1264 73.2356 79.4199C71.2284 78.4771 69.5863 76.8958 69.2821 75.6185C69.0084 74.5541 69.6167 73.3681 70.3769 73.3681C73.5397 73.3681 75.121 69.4451 72.749 67.4379C70.2553 65.3396 66.4235 66.404 64.0819 69.8404C62.7742 71.7563 62.3789 73.3681 62.5613 75.8618C62.835 79.724 65.5112 83.4037 69.5254 85.35C71.7758 86.4448 71.8063 86.5664 69.9512 88.5127C67.6704 90.976 64.3252 91.5538 61.7098 89.9421C59.581 88.6344 57.7564 86.2623 56.9961 83.799C56.175 81.2445 56.1142 76.8349 56.8441 74.1284C58.2734 68.6544 62.2572 63.9103 66.7884 62.2681C68.6435 61.599 69.0389 60.9908 69.3126 58.3147C69.8904 52.4453 73.5701 46.5152 79.2873 42.1664C82.8454 39.4599 88.5627 37.3007 94.0975 36.6012C97.4123 36.1755 104.072 36.2363 107.174 36.7229ZM67.3358 45.8158C67.3358 45.8766 66.7276 46.9105 65.9978 48.0966C64.7205 50.1645 63.6257 53.1448 63.2608 55.4256C63.1087 56.3379 62.8654 56.6116 61.3449 57.4023C59.1857 58.5275 55.8101 61.6599 54.1983 64.0319C52.6473 66.3127 51.066 69.6884 50.4578 71.9996C48.5115 79.5111 49.4846 85.7758 53.5293 91.5538L54.9282 93.561L54.8978 100.403C54.8369 107.793 55.0498 109.375 56.5095 112.233C58.1517 115.457 61.4665 118.103 64.9942 118.985L66.4235 119.349V123.333C66.4235 127.682 66.8189 129.811 68.2786 133.369C69.1605 135.467 69.1605 135.528 69.1605 142.066V148.666L65.4504 150.308C63.3824 151.22 59.581 152.954 56.9961 154.17L52.2824 156.42L50.2145 154.2C41.2736 144.621 34.9786 130.875 32.9106 116.4C32.3328 112.233 32.4241 100.708 33.0627 96.9366C34.7049 87.5092 38.0197 78.1426 42.4597 70.5703C45.6832 65.0051 52.9515 56.5508 58.5167 51.9588C62.6526 48.5223 67.3358 45.2379 67.3358 45.8158ZM136.338 47.5188C140.565 50.4382 142.329 51.9284 146.891 56.4596C153.216 62.7851 156.835 67.7421 160.667 75.3752C163.374 80.7884 166.019 88.6648 167.297 95.1119C167.722 97.3319 167.844 99.4303 167.844 106.516C167.844 114.301 167.783 115.578 167.145 119.137C165.381 128.746 161.488 138.965 156.744 146.294C154.859 149.243 150.996 154.2 149.689 155.417L148.928 156.086L147.134 155.295C146.161 154.869 143.029 153.531 140.17 152.376C137.342 151.22 134.21 149.912 133.267 149.487L131.503 148.696V142.097V135.467L132.415 133.521C133.571 131.027 134.179 128.077 134.453 123.12L134.696 119.228L136.369 118.711C140.292 117.494 143.485 114.332 144.823 110.287C145.34 108.766 145.462 107.398 145.583 100.981L145.735 93.5001L147.013 91.6147C150.054 87.1442 151.148 83.13 150.875 77.4736C150.692 73.5201 149.932 70.6919 148.168 67.1947C145.979 62.8155 142.633 59.1357 139.227 57.3415C137.646 56.5204 137.585 56.4292 137.281 54.8174C136.764 52.2933 136.156 50.6511 134.879 48.1878C134.24 47.0018 133.814 45.9982 133.905 45.9982C134.027 45.9982 135.122 46.6673 136.338 47.5188ZM90.4786 53.7834C90.6002 53.8442 90.7523 54.4525 90.8435 55.1215C91.178 57.7064 93.6413 60.1697 96.8041 61.1125C97.8684 61.447 99.5106 61.6294 101.092 61.6294C103.859 61.599 105.562 61.0516 107.874 59.4703C109.06 58.6492 110.519 56.5204 110.519 55.6385C110.519 55.3648 110.671 54.787 110.884 54.3308C111.219 53.601 111.371 53.5401 112.527 53.6922C114.29 53.8746 115.507 54.8478 116.48 56.8245C117.149 58.193 117.271 58.7404 117.119 59.9873C116.602 64.3969 113.013 68.0462 107.478 69.7796C105.502 70.3878 104.589 70.479 100.636 70.479C95.4964 70.4486 93.3676 70.0229 90.3265 68.4111C86.8293 66.556 84.4572 63.6366 83.9098 60.5347C83.4232 57.8889 85.4608 54.3004 87.8024 53.6314C88.6539 53.3881 89.9008 53.4793 90.4786 53.7834ZM104.011 82.0656C106.14 84.164 107.813 85.2284 110.732 86.3232C112.922 87.1442 117.605 87.9653 120.251 87.9653H121.924L123.14 89.9725C123.809 91.0673 125.208 92.7703 126.272 93.8042C129.009 96.4196 128.462 96.8149 124.144 95.2944C120.768 94.0779 119.46 93.7738 116.571 93.4393C113.591 93.1048 110.185 93.4697 108.087 94.3821C106.262 95.1727 104.285 97.2103 103.859 98.7916C103.647 99.5215 103.525 103.566 103.525 109.162V118.376L102.643 119.349C101.974 120.079 101.518 120.323 100.727 120.323C99.4194 120.323 98.1117 119.532 97.7468 118.498C97.5643 118.072 97.4427 113.632 97.4427 108.523V99.339L96.652 97.7273C94.2191 92.8615 86.8293 91.8884 77.1282 95.1119C73.783 96.2371 73.2356 96.3284 72.5057 95.8722C72.1104 95.6289 72.1712 95.5073 72.8098 95.0511C74.5128 93.8651 76.672 91.5538 77.6756 89.8508L78.7095 88.0566L82.2372 87.8741C90.0832 87.4788 96.1654 84.5593 99.6323 79.4807L100.575 78.1122L101.366 79.1766C101.761 79.7544 102.977 81.0316 104.011 82.0656ZM76.4591 102.441C78.5271 104.631 79.9564 105.269 82.5717 105.3C85.1567 105.3 87.3463 104.266 88.7147 102.38C89.8095 100.89 90.2353 100.768 90.8739 101.711C91.2389 102.258 91.3605 104.266 91.543 111.138L91.7558 119.866L90.8739 120.201C88.4411 121.144 87.0421 122.056 84.8221 124.306C81.2032 127.925 79.2265 132.457 79.1961 137.018C79.1961 138.691 79.1657 138.752 78.5879 138.448C77.6147 137.931 75.3643 134.677 74.6041 132.73C74.0871 131.453 73.9046 130.328 73.9046 128.412C73.8742 126.101 73.9654 125.645 74.7561 124.215C75.2427 123.364 76.0942 122.269 76.672 121.843C77.2194 121.417 77.6756 120.87 77.6756 120.627C77.6756 120.383 76.8545 119.41 75.8509 118.498C74.6345 117.373 73.7221 116.126 73.0531 114.818C72.1408 112.963 72.0495 112.477 71.8063 108.402C71.5021 103.262 71.6238 102.198 72.7186 101.346C73.9654 100.373 74.6345 100.586 76.4591 102.441ZM128.553 101.589C129.344 102.289 129.313 110.53 128.523 112.963C127.702 115.487 126.516 117.251 124.661 118.832C123.748 119.623 122.988 120.444 122.988 120.657C122.988 120.87 123.474 121.417 124.052 121.843C126.364 123.637 127.428 127.591 126.516 131.118C125.877 133.643 124.478 136.258 122.957 137.718L121.771 138.873V137.778C121.771 135.346 120.859 131.879 119.46 129.081C117.544 125.158 114.899 122.391 111.675 120.87L109.303 119.745V111.047C109.303 102.745 109.333 102.35 109.911 101.711C110.276 101.346 110.641 101.042 110.732 101.042C110.824 101.042 111.645 101.742 112.527 102.563C114.594 104.509 116.267 105.3 118.426 105.3C120.646 105.3 122.38 104.448 124.569 102.38C126.09 100.951 126.424 100.738 127.154 100.92C127.61 101.042 128.249 101.346 128.553 101.589ZM63.2912 104.539C63.4128 104.661 63.352 104.691 63.1695 104.57C62.9567 104.448 62.7742 104.509 62.7742 104.691C62.7742 104.874 62.6526 104.935 62.4701 104.843C62.318 104.752 62.166 104.539 62.166 104.387C62.166 104.083 62.9871 104.174 63.2912 104.539ZM64.1427 104.691C64.0515 104.843 64.1427 105.056 64.2947 105.148C64.4772 105.269 64.7813 105.725 64.9334 106.151C65.1767 106.79 65.2983 106.851 65.5112 106.516C65.6936 106.212 65.8153 107.155 65.8153 109.162C65.8153 110.895 65.6936 112.294 65.572 112.294C64.9638 112.294 62.835 110.105 62.318 108.979C61.8315 107.885 61.8315 107.611 62.166 106.942C62.4093 106.546 62.7438 106.242 62.9263 106.334C63.1087 106.394 63.2912 106.182 63.2912 105.877C63.352 105.391 63.2608 105.36 62.683 105.695C62.318 105.908 61.9227 106.182 61.801 106.364C61.649 106.546 61.5578 106.516 61.5578 106.273C61.5578 105.908 62.9567 105.148 63.4736 105.239C63.5953 105.269 63.6865 105.026 63.6865 104.661C63.6865 104.326 63.8386 104.144 63.9906 104.235C64.1731 104.357 64.2339 104.539 64.1427 104.691ZM65.8153 104.965C65.8153 105.087 65.6024 105.208 65.3591 105.208C65.1158 105.208 64.903 105.026 64.903 104.813C64.903 104.57 65.0854 104.478 65.3591 104.57C65.6024 104.691 65.8153 104.843 65.8153 104.965ZM138.71 105.665C138.619 105.908 138.528 105.817 138.528 105.482C138.497 105.148 138.589 104.965 138.68 105.087C138.771 105.178 138.802 105.452 138.71 105.665ZM138.558 106.455C138.984 106.881 138.528 108.827 137.768 109.952C137.403 110.469 136.642 111.23 136.065 111.625L135 112.355L134.909 111.047C134.848 110.348 134.97 109.618 135.122 109.466C135.304 109.283 135.456 108.979 135.456 108.797C135.456 108.645 135.304 108.706 135.122 108.949C134.879 109.314 134.848 109.192 134.909 108.493C135 107.428 135.396 106.759 135.791 107.003C135.943 107.094 136.156 106.942 136.247 106.698C136.399 106.303 136.551 106.334 137.311 106.881C137.798 107.246 138.285 107.459 138.376 107.337C138.619 107.094 138.193 106.486 137.889 106.668C137.768 106.759 137.494 106.607 137.281 106.364C136.977 105.999 137.038 105.969 137.616 106.06C137.981 106.151 138.437 106.334 138.558 106.455ZM97.0169 127.773C98.2334 128.321 99.2674 129.415 99.2674 130.115C99.2674 130.358 98.4767 130.51 97.0169 130.602C95.1315 130.693 94.6145 130.814 93.9758 131.423C92.6074 132.73 92.6378 134.859 94.0975 136.319C94.6753 136.897 95.0706 136.927 100.453 136.927H106.201L107.144 135.863C108.269 134.585 108.33 133.734 107.387 132.335C106.475 130.966 105.562 130.541 103.464 130.541C101.548 130.541 101.335 130.297 102.187 129.051C102.856 128.108 104.924 127.195 106.414 127.195C108.117 127.195 110.428 128.382 111.888 129.963C114.351 132.609 115.385 135.954 115.385 141.032C115.385 144.621 114.959 146.628 113.713 149.091C112.648 151.159 111.128 152.771 107.63 155.478C104.316 158.002 102.704 159.796 101.396 162.259C100.97 163.05 100.575 163.689 100.484 163.689C100.393 163.689 99.9668 162.959 99.4802 162.077C98.2334 159.705 96.4695 157.819 93.0027 155.143C89.3838 152.345 87.9241 150.794 86.8901 148.574C85.9778 146.598 85.2783 143.374 85.2783 141.032C85.2783 138.66 86.2515 134.038 87.0726 132.396C89.2317 128.199 93.5501 126.192 97.0169 127.773ZM76.8545 152.132C77.0978 152.132 77.0673 152.011 76.7632 151.798C76.3983 151.555 76.4287 151.524 76.9457 151.676C77.341 151.768 77.7972 151.676 78.0709 151.372C78.375 151.098 78.6183 151.038 78.74 151.22C78.8312 151.372 78.74 151.524 78.5271 151.524C78.223 151.524 78.2534 151.615 78.5879 151.859C78.9832 152.132 78.9832 152.163 78.5575 152.041C78.2838 151.95 77.8884 152.011 77.6452 152.163C77.4019 152.315 77.3715 152.437 77.5539 152.437C77.7668 152.437 78.0101 152.649 78.1013 152.923C78.2534 153.288 78.1621 153.379 77.8276 153.227C77.5539 153.136 77.4019 153.166 77.5235 153.319C77.6147 153.471 77.5235 153.653 77.3106 153.714C77.0978 153.805 77.1586 153.927 77.4931 154.048C77.8276 154.2 77.9493 154.14 77.7972 153.896C77.6452 153.653 77.7364 153.623 78.0709 153.744C78.74 153.988 79.0441 153.44 78.5271 152.832C78.1926 152.406 78.223 152.376 78.8312 152.558C79.3482 152.741 79.5002 152.649 79.5002 152.285C79.5002 152.011 79.5915 151.828 79.7435 151.889C81.2032 152.589 81.629 152.862 81.629 153.075C81.629 153.714 85.9474 158.397 87.8024 159.766C94.432 164.723 96.5912 168.068 97.1386 174.272C97.2906 176.035 97.3515 177.556 97.2906 177.617C97.0474 177.891 91.0564 177.069 87.5591 176.309C80.9295 174.88 75.121 172.873 70.529 170.44L68.4002 169.315L68.309 162.685C68.2482 156.937 68.309 156.086 68.7043 156.086C69.0997 156.086 69.1605 156.694 69.1605 159.887C69.1605 163.567 69.1909 163.689 69.9208 164.175C70.8635 164.783 72.1104 164.54 73.2052 163.506C74.7865 162.046 75.0298 161.134 75.1819 156.481C75.2731 153.623 75.4252 152.224 75.638 152.345C75.8205 152.467 75.8509 152.376 75.6989 152.132C75.5772 151.92 75.4252 151.311 75.3643 150.794L75.2731 149.852L75.8813 150.977C76.2158 151.615 76.6416 152.132 76.8545 152.132ZM123.687 150.764C123.596 151.038 123.444 151.19 123.383 151.098C123.292 151.007 123.322 150.825 123.444 150.642C123.718 150.156 123.9 150.247 123.687 150.764ZM124.965 151.22C124.873 151.372 124.934 151.555 125.117 151.676C125.299 151.798 125.421 153.471 125.421 155.843C125.421 158.063 125.573 160.343 125.786 161.043C126.303 162.715 127.762 164.206 129.192 164.449C131.077 164.814 131.321 164.327 131.442 160.009C131.533 156.998 131.625 156.36 131.99 156.451C132.385 156.512 132.446 157.606 132.507 163.08L132.567 169.619L129.07 171.352C125.086 173.359 118.761 175.519 114.321 176.4C110.763 177.13 104.194 177.83 103.89 177.526C103.555 177.191 103.829 173.451 104.346 171.291C105.319 167.247 106.992 164.875 111.249 161.438C112.77 160.191 114.473 158.701 115.051 158.093C115.628 157.515 116.206 157.089 116.328 157.181C116.45 157.242 116.662 157.15 116.784 156.968C116.936 156.725 116.875 156.694 116.571 156.846C116.328 156.998 116.48 156.725 116.875 156.299C117.271 155.843 117.696 155.569 117.818 155.63C117.94 155.721 118.031 155.538 118.001 155.234C118.001 154.961 118.122 154.748 118.335 154.778C118.548 154.839 118.639 154.657 118.548 154.413C118.426 154.17 118.487 153.957 118.639 153.957C118.822 153.957 119.095 153.653 119.247 153.258C119.551 152.619 119.582 152.619 120.038 153.653C120.312 154.261 120.525 154.505 120.525 154.17C120.555 153.896 120.707 153.653 120.859 153.653C121.042 153.653 121.163 153.501 121.163 153.319C121.163 153.075 121.011 153.075 120.707 153.349C120.342 153.653 120.251 153.653 120.251 153.258C120.251 152.923 120.464 152.832 121.042 152.923C121.589 153.014 121.741 152.954 121.589 152.71C121.467 152.467 121.498 152.437 121.711 152.558C121.893 152.68 121.954 152.984 121.863 153.258C121.741 153.592 121.771 153.683 122.015 153.531C122.228 153.41 122.38 153.44 122.38 153.592C122.38 154.109 123.17 153.835 123.201 153.288C123.231 152.984 123.11 152.741 122.957 152.741C122.775 152.741 122.745 152.589 122.866 152.406C122.988 152.163 123.14 152.193 123.322 152.467C123.535 152.802 123.596 152.771 123.596 152.345C123.596 152.072 123.718 151.828 123.9 151.828C124.083 151.828 124.083 152.102 123.9 152.619C123.444 153.744 123.566 153.927 124.083 152.954C124.326 152.497 124.661 152.193 124.813 152.285C124.995 152.376 125.025 152.254 124.934 152.011C124.843 151.737 124.539 151.524 124.296 151.524C123.9 151.524 123.9 151.433 124.204 151.068C124.569 150.612 125.269 150.734 124.965 151.22ZM122.349 151.007C122.288 151.038 121.954 151.281 121.619 151.524C121.042 151.95 121.042 151.95 121.437 151.433C121.65 151.159 121.984 150.916 122.167 150.916C122.349 150.916 122.41 150.946 122.349 151.007ZM141.691 160.404C142.785 160.952 143.667 161.469 143.667 161.56C143.667 161.773 139.836 164.905 139.562 164.905C139.471 164.905 139.41 163.658 139.41 162.168C139.41 160.648 139.471 159.431 139.562 159.431C139.623 159.431 140.596 159.857 141.691 160.404ZM61.4057 162.168C61.4057 163.506 61.3449 164.601 61.2537 164.601C60.9799 164.601 57.5435 161.925 57.5131 161.682C57.4523 161.438 60.5238 159.796 61.1016 159.766C61.2841 159.735 61.4057 160.739 61.4057 162.168Z" fill="#43766C"/>
<path d="M41.8819 101.164C40.5134 101.802 39.6619 103.292 39.6619 105.087C39.6619 107.763 41.152 109.283 43.9194 109.496C45.4095 109.618 45.7441 109.527 46.5956 108.797C49.0284 106.759 49.1197 103.809 46.8389 101.681C45.8657 100.768 43.3416 100.495 41.8819 101.164Z" fill="#43766C"/>
<path d="M52.5561 133.095C50.6706 133.916 49.5758 136.684 50.2753 138.812C50.4578 139.39 51.0964 140.303 51.6742 140.88C52.5257 141.701 53.0123 141.914 54.3199 142.036C56.3575 142.188 57.726 141.337 58.7599 139.36C60.7975 135.376 56.7528 131.271 52.5561 133.095Z" fill="#43766C"/>
<path d="M155.528 100.799C152.882 101.529 151.392 104.722 152.608 107.063C154.707 111.108 160.333 110.196 161.184 105.695C161.306 104.965 161.184 104.296 160.667 103.262C159.603 101.164 157.626 100.221 155.528 100.799Z" fill="#43766C"/>
<path d="M143.789 133.247C141.447 134.677 140.748 136.957 141.904 139.299C142.816 141.154 144.215 142.097 146.07 142.097C148.776 142.097 150.662 140.151 150.662 137.383C150.662 135.559 149.962 134.373 148.32 133.369C146.891 132.517 145.066 132.457 143.789 133.247Z" fill="#43766C"/>
<path d="M63.7778 105.756C63.7778 105.999 63.8994 106.212 64.0515 106.212C64.1731 106.212 64.2947 105.999 64.2947 105.756C64.2947 105.512 64.1731 105.3 64.0515 105.3C63.8994 105.3 63.7778 105.512 63.7778 105.756Z" fill="#43766C"/>
<path d="M62.4397 107.337C62.0443 107.824 62.0748 107.854 62.5613 107.459C63.0479 107.064 63.2 106.82 62.9567 106.82C62.8958 106.82 62.6526 107.064 62.4397 107.337Z" fill="#43766C"/>
<path d="M136.247 107.915L135.73 108.797L136.308 108.128C136.764 107.611 136.947 107.55 137.068 107.854C137.159 108.067 137.068 108.432 136.886 108.614C136.673 108.827 136.855 108.797 137.372 108.584C137.798 108.371 138.011 108.128 137.798 108.067C137.585 108.006 137.281 107.732 137.099 107.489C136.855 107.124 136.703 107.216 136.247 107.915Z" fill="#43766C"/>
<path d="M79.8043 152.437C79.8043 152.589 79.9564 152.741 80.1388 152.741C80.2909 152.741 80.3517 152.589 80.2605 152.437C80.1693 152.254 80.0172 152.133 79.926 152.133C79.8652 152.133 79.8043 152.254 79.8043 152.437Z" fill="#43766C"/>
<path d="M76.3983 152.954C76.6112 153.045 76.8849 153.014 76.9761 152.923C77.0977 152.832 76.9153 152.741 76.5808 152.771C76.2462 152.771 76.155 152.862 76.3983 152.954Z" fill="#43766C"/>
<path d="M80.7167 152.984C80.7167 153.349 81.2945 153.775 81.5073 153.562C81.5682 153.501 81.4465 153.258 81.1728 153.045C80.8991 152.801 80.7167 152.801 80.7167 152.984Z" fill="#43766C"/>
<path d="M79.3786 153.562C79.1961 153.987 79.2265 154.018 79.5306 153.744C79.7435 153.531 79.8347 153.288 79.7435 153.197C79.6523 153.106 79.4698 153.258 79.3786 153.562Z" fill="#43766C"/>
<path d="M80.443 154.444C80.443 154.778 80.5342 154.87 80.6254 154.626C80.7167 154.413 80.6863 154.14 80.595 154.048C80.5038 153.927 80.4126 154.109 80.443 154.444Z" fill="#43766C"/>
<path d="M119.643 155.022C119.643 155.204 120.038 155.386 120.555 155.417C121.163 155.478 121.407 155.356 121.315 155.113C121.133 154.657 119.643 154.596 119.643 155.022Z" fill="#43766C"/>
</svg>
